<svg width="158" height="56" fill="none" xmlns="http://www.w3.org/2000/svg"><path d="M83.285 30.15V34h-18.06v-3.045l9.73-9.24c1.097-1.05 1.832-1.96 2.205-2.73.397-.793.595-1.575.595-2.345 0-1.143-.385-2.018-1.155-2.625-.77-.607-1.902-.91-3.395-.91-2.497 0-4.41.852-5.74 2.555l-3.185-2.45c.957-1.283 2.24-2.275 3.85-2.975 1.633-.723 3.453-1.085 5.46-1.085 2.66 0 4.783.63 6.37 1.89 1.587 1.26 2.38 2.975 2.38 5.145 0 1.33-.28 2.578-.84 3.745-.56 1.167-1.633 2.497-3.22 3.99l-6.545 6.23h11.55zm5.733-1.715c.817 0 1.493.268 2.03.805.537.537.805 1.237.805 2.1 0 .373-.058.77-.175 1.19-.093.397-.303 1.003-.63 1.82l-1.785 4.935h-2.835l1.4-5.355a2.676 2.676 0 01-1.225-.98c-.28-.467-.42-1.003-.42-1.61 0-.863.268-1.563.805-2.1.537-.537 1.213-.805 2.03-.805zM112.765 9.5v3.045L103.245 34H98.38l9.205-20.65H97.96v4.165h-4.235V9.5h19.04zM127.54 34.14c-1.107 0-2.1-.233-2.98-.7a5.16 5.16 0 01-2.06-1.94c-.493-.84-.74-1.787-.74-2.84s.247-1.993.74-2.82a5.191 5.191 0 012.04-1.94c.88-.467 1.88-.7 3-.7 1.053 0 1.973.213 2.76.64.8.427 1.4 1.04 1.8 1.84l-1.92 1.12c-.307-.493-.693-.86-1.16-1.1a3.021 3.021 0 00-1.5-.38c-.933 0-1.707.307-2.32.92-.613.6-.92 1.407-.92 2.42s.3 1.827.9 2.44c.613.6 1.393.9 2.34.9.547 0 1.047-.12 1.5-.36a3.105 3.105 0 001.16-1.12l1.92 1.12c-.413.8-1.02 1.42-1.82 1.86-.787.427-1.7.64-2.74.64zm16.605-5.42c0 .173-.013.42-.04.74h-8.38c.147.787.527 1.413 1.14 1.88.627.453 1.4.68 2.32.68 1.173 0 2.14-.387 2.9-1.16l1.34 1.54a4.517 4.517 0 01-1.82 1.3c-.733.293-1.56.44-2.48.44-1.173 0-2.207-.233-3.1-.7-.893-.467-1.587-1.113-2.08-1.94-.48-.84-.72-1.787-.72-2.84 0-1.04.233-1.973.7-2.8a5.087 5.087 0 011.98-1.96c.84-.467 1.787-.7 2.84-.7 1.04 0 1.967.233 2.78.7a4.718 4.718 0 011.92 1.94c.467.827.7 1.787.7 2.88zm-5.4-3.52c-.8 0-1.48.24-2.04.72-.547.467-.88 1.093-1 1.88h6.06c-.107-.773-.433-1.4-.98-1.88-.547-.48-1.227-.72-2.04-.72zm12.574 4.52h-1.94V34h-2.5V23.32h2.5v4.32h2l3.16-4.32h2.68l-3.88 5.14 4.14 5.54h-2.94l-3.22-4.28zM67.972 53.072a3.048 3.048 0 01-1.74-.516c-.504-.344-.9-.836-1.188-1.476-.28-.648-.42-1.408-.42-2.28 0-.872.14-1.628.42-2.268.288-.648.684-1.144 1.188-1.488a3.048 3.048 0 011.74-.516c.648 0 1.224.172 1.728.516.512.344.912.84 1.2 1.488.288.64.432 1.396.432 2.268 0 .872-.144 1.632-.432 2.28-.288.64-.688 1.132-1.2 1.476a2.992 2.992 0 01-1.728.516zm0-.792c.488 0 .916-.136 1.284-.408.376-.272.668-.668.876-1.188.208-.52.312-1.148.312-1.884s-.104-1.364-.312-1.884c-.208-.52-.5-.916-.876-1.188a2.102 2.102 0 00-1.284-.408c-.488 0-.92.136-1.296.408-.368.272-.656.668-.864 1.188-.208.52-.312 1.148-.312 1.884s.104 1.364.312 1.884c.208.52.496.916.864 1.188.376.272.808.408 1.296.408zm4.787-2.904h3.144v.744H72.76v-.744zm6.615-4.776V53h-.864v-7.632h-1.98V44.6h2.844zm5.356 8.472a3.048 3.048 0 01-1.74-.516c-.504-.344-.9-.836-1.188-1.476-.28-.648-.42-1.408-.42-2.28 0-.872.14-1.628.42-2.268.288-.648.684-1.144 1.188-1.488a3.048 3.048 0 011.74-.516c.648 0 1.224.172 1.728.516.512.344.912.84 1.2 1.488.288.64.432 1.396.432 2.268 0 .872-.144 1.632-.432 2.28-.288.64-.688 1.132-1.2 1.476a2.992 2.992 0 01-1.728.516zm0-.792c.488 0 .916-.136 1.284-.408.376-.272.668-.668.876-1.188.208-.52.312-1.148.312-1.884s-.104-1.364-.312-1.884c-.208-.52-.5-.916-.876-1.188a2.102 2.102 0 00-1.284-.408c-.488 0-.92.136-1.296.408-.368.272-.656.668-.864 1.188-.208.52-.312 1.148-.312 1.884s.104 1.364.312 1.884c.208.52.496.916.864 1.188.376.272.808.408 1.296.408zm7.945.792a3.048 3.048 0 01-1.74-.516c-.504-.344-.9-.836-1.188-1.476-.28-.648-.42-1.408-.42-2.28 0-.872.14-1.628.42-2.268.288-.648.684-1.144 1.188-1.488a3.048 3.048 0 011.74-.516c.648 0 1.224.172 1.728.516.512.344.912.84 1.2 1.488.288.64.432 1.396.432 2.268 0 .872-.144 1.632-.432 2.28-.288.64-.688 1.132-1.2 1.476a2.992 2.992 0 01-1.728.516zm0-.792c.488 0 .916-.136 1.284-.408.376-.272.668-.668.876-1.188.208-.52.312-1.148.312-1.884s-.104-1.364-.312-1.884c-.208-.52-.5-.916-.876-1.188a2.102 2.102 0 00-1.284-.408c-.488 0-.92.136-1.296.408-.368.272-.656.668-.864 1.188-.208.52-.312 1.148-.312 1.884s.104 1.364.312 1.884c.208.52.496.916.864 1.188.376.272.808.408 1.296.408zm10.618-2.088h-1.44V53h-.852v-6.312h.852v2.772h1.452l2.22-2.772h.924l-2.484 3.06L106.629 53h-1.008l-2.328-2.808zm11.737-3.504V53h-.78v-4.992l-2.556 4.224h-.384l-2.556-4.236V53h-.78v-6.312h.864l2.676 4.548 2.724-4.548h.792zm4.872-3.792h.78l-3.96 11.304h-.78l3.96-11.304zm5.515 3.792V53h-.852v-2.628c-.728.32-1.444.48-2.148.48-.76 0-1.352-.172-1.776-.516-.424-.352-.636-.876-.636-1.572v-2.076h.852v2.028c0 .472.152.832.456 1.08.304.24.724.36 1.26.36.592 0 1.256-.156 1.992-.468v-3h.852zm4.592-.048c.824 0 1.456.208 1.896.624.44.408.66 1.016.66 1.824V53h-.816v-.984a1.947 1.947 0 01-.852.768c-.368.184-.808.276-1.32.276-.704 0-1.264-.168-1.68-.504-.416-.336-.624-.78-.624-1.332 0-.536.192-.968.576-1.296.392-.328 1.012-.492 1.86-.492h2.004v-.384c0-.544-.152-.956-.456-1.236-.304-.288-.748-.432-1.332-.432-.4 0-.784.068-1.152.204a2.822 2.822 0 00-.948.54l-.384-.636c.32-.272.704-.48 1.152-.624.448-.152.92-.228 1.416-.228zm-.3 5.748c.48 0 .892-.108 1.236-.324.344-.224.6-.544.768-.96v-1.032h-1.98c-1.08 0-1.62.376-1.62 1.128 0 .368.14.66.42.876.28.208.672.312 1.176.312zm7.764.672a3.436 3.436 0 01-1.68-.408 2.976 2.976 0 01-1.152-1.14 3.333 3.333 0 01-.42-1.668c0-.616.14-1.168.42-1.656.28-.488.664-.868 1.152-1.14a3.436 3.436 0 011.68-.408c.544 0 1.028.108 1.452.324.432.208.772.516 1.02.924l-.636.432a1.945 1.945 0 00-.792-.696c-.32-.16-.668-.24-1.044-.24-.456 0-.868.104-1.236.312-.36.2-.644.488-.852.864-.2.376-.3.804-.3 1.284 0 .488.1.92.3 1.296.208.368.492.656.852.864.368.2.78.3 1.236.3.376 0 .724-.076 1.044-.228.32-.152.584-.384.792-.696l.636.432c-.248.408-.588.72-1.02.936a3.304 3.304 0 01-1.452.312z" fill="#000"/><path d="M37.525 33.105c0 5.783-4.712 10.47-10.525 10.47-5.813 0-10.525-4.687-10.525-10.47S21.187 22.635 27 22.635c5.813 0 10.525 4.687 10.525 10.47z" fill="#C4C4C4"/><path d="M24.674 34.465c-.652-1.405-.047-3.068 1.346-3.708 1.389-.64 3.047-.016 3.7 1.388l13.76 7.672-15.257-3.894c-1.358.523-2.92-.105-3.549-1.458z" fill="#030104"/><g filter="url(#filter0_d)"><path d="M10.736 18.731A22.859 22.859 0 0127 12c6.144 0 11.92 2.39 16.264 6.731A22.824 22.824 0 0150 34.983c0 3.963-1 7.773-2.876 11.144h-4.299l-3.144-1.814 1.389-2.404 4.043 2.333a20.197 20.197 0 002.159-11.01l-4.82.85-.483-2.734 4.877-.86a20.32 20.32 0 00-5.55-9.96l-3.304 3.936-2.128-1.784 3.33-3.965A20.244 20.244 0 0028.388 14.7v5.263h-2.777v-5.263a20.247 20.247 0 00-10.805 4.016l3.33 3.965-2.127 1.784-3.305-3.935a20.322 20.322 0 00-5.55 9.96l4.877.86-.482 2.732-4.82-.85a20.194 20.194 0 002.159 11.01l4.042-2.332 1.389 2.404-3.144 1.813h-4.3A22.836 22.836 0 014 34.982c0-6.138 2.393-11.91 6.736-16.25z" fill="#030104"/></g><defs><filter id="filter0_d" x="0" y="12" width="54" height="42.127" filterUnits="userSpaceOnUse" color-interpolation-filters="sRGB"><feFlood flood-opacity="0" result="BackgroundImageFix"/><feColorMatrix in="SourceAlpha" values="0 0 0 0 0 0 0 0 0 0 0 0 0 0 0 0 0 0 127 0"/><feOffset dy="4"/><feGaussianBlur stdDeviation="2"/><feColorMatrix values="0 0 0 0 0 0 0 0 0 0 0 0 0 0 0 0 0 0 0.25 0"/><feBlend in2="BackgroundImageFix" result="effect1_dropShadow"/><feBlend in="SourceGraphic" in2="effect1_dropShadow" result="shape"/></filter></defs></svg>