<svg width="222" height="82" fill="none" xmlns="http://www.w3.org/2000/svg"><path d="M97.405 43.423l9.35-8.9c4.85-4.55 5.8-7.65 5.8-11.05 0-6.2-4.9-10.05-12.5-10.05-5.75 0-10.6 2.15-13.3 5.8l4.55 3.5c1.95-2.5 4.8-3.65 8.2-3.65 4.3 0 6.5 1.85 6.5 5.05 0 1.95-.6 4-4 7.25l-13.9 13.2v4.35h25.8v-5.5h-16.5zm24.69-2.45c-2.3 0-4.05 1.65-4.05 4.15 0 1.8.95 3.1 2.35 3.7l-2 7.65h4.05l2.55-7.05c.9-2.3 1.15-3.2 1.15-4.3 0-2.45-1.7-4.15-4.05-4.15zm6.724-27.05v11.45h6.05v-5.95h13.75l-13.15 29.5h6.95l13.6-30.65v-4.35h-27.2zM174.584 41.56c2.08 0 3.74-.9 4.56-2.5l-1.92-1.12c-.64 1.02-1.6 1.48-2.66 1.48-1.84 0-3.24-1.26-3.24-3.34 0-2.06 1.4-3.34 3.24-3.34 1.06 0 2.02.46 2.66 1.48l1.92-1.12c-.82-1.62-2.48-2.48-4.56-2.48-3.38 0-5.78 2.26-5.78 5.46s2.4 5.48 5.78 5.48zm16.605-5.42c0-3.34-2.28-5.52-5.4-5.52-3.18 0-5.52 2.28-5.52 5.46s2.32 5.48 5.9 5.48c1.84 0 3.34-.6 4.3-1.74l-1.34-1.54c-.76.78-1.7 1.16-2.9 1.16-1.86 0-3.16-1-3.46-2.56h8.38c.02-.24.04-.54.04-.74zm-5.4-3.52c1.64 0 2.82 1.06 3.02 2.6h-6.06c.24-1.56 1.42-2.6 3.04-2.6zm15.794 8.8h2.94l-4.14-5.54 3.88-5.14h-2.68l-3.16 4.32h-2v-4.32h-2.5v10.68h2.5v-4.28h1.94l3.22 4.28zM90.327 71.753c1.944 0 3.36-1.596 3.36-4.272s-1.416-4.272-3.36-4.272-3.348 1.596-3.348 4.272 1.404 4.272 3.348 4.272zm0-.792c-1.464 0-2.472-1.236-2.472-3.48 0-2.244 1.008-3.48 2.472-3.48s2.472 1.236 2.472 3.48c0 2.244-1.008 3.48-2.472 3.48zm4.787-2.16h3.144v-.744h-3.144v.744zm3.77-5.52v.768h1.981v7.632h.864v-8.4h-2.844zm8.201 8.472c1.944 0 3.36-1.596 3.36-4.272s-1.416-4.272-3.36-4.272-3.348 1.596-3.348 4.272 1.404 4.272 3.348 4.272zm0-.792c-1.464 0-2.472-1.236-2.472-3.48 0-2.244 1.008-3.48 2.472-3.48s2.472 1.236 2.472 3.48c0 2.244-1.008 3.48-2.472 3.48zm7.945.792c1.944 0 3.36-1.596 3.36-4.272s-1.416-4.272-3.36-4.272-3.348 1.596-3.348 4.272 1.404 4.272 3.348 4.272zm0-.792c-1.464 0-2.472-1.236-2.472-3.48 0-2.244 1.008-3.48 2.472-3.48s2.472 1.236 2.472 3.48c0 2.244-1.008 3.48-2.472 3.48zm12.946.72h1.008l-2.664-3.252 2.484-3.06h-.924l-2.22 2.772h-1.452V65.37h-.852v6.312h.852v-2.808h1.44l2.328 2.808zm8.617-6.312l-2.724 4.548-2.676-4.548h-.864v6.312h.78v-5.004l2.556 4.236h.384l2.556-4.224v4.992h.78V65.37h-.792zm1.704 7.512h.78l3.96-11.304h-.78l-3.96 11.304zm8.623-7.512v3c-.708.3-1.38.468-1.992.468-1.056 0-1.716-.48-1.716-1.44V65.37h-.852v2.076c0 1.428.936 2.088 2.412 2.088.708 0 1.44-.168 2.148-.48v2.628h.852V65.37h-.852zm5.444-.048c-.996 0-1.932.312-2.568.852l.384.636c.516-.456 1.284-.744 2.1-.744 1.176 0 1.788.588 1.788 1.668v.384h-2.004c-1.812 0-2.436.816-2.436 1.788 0 1.092.876 1.836 2.304 1.836 1.044 0 1.788-.396 2.172-1.044v.984h.816V67.77c0-1.632-.924-2.448-2.556-2.448zm-.3 5.748c-1.008 0-1.596-.456-1.596-1.188 0-.648.396-1.128 1.62-1.128h1.98v1.032c-.336.828-1.044 1.284-2.004 1.284zm7.764.672c1.068 0 1.968-.432 2.472-1.248l-.636-.432c-.432.636-1.104.924-1.836.924-1.38 0-2.388-.972-2.388-2.46 0-1.476 1.008-2.46 2.388-2.46.732 0 1.404.3 1.836.936l.636-.432c-.504-.828-1.404-1.248-2.472-1.248-1.884 0-3.252 1.32-3.252 3.204 0 1.884 1.368 3.216 3.252 3.216z" fill="#000"/><path d="M48.413 48.366c0 8.288-6.753 15.006-15.084 15.006-8.33 0-15.084-6.718-15.084-15.006 0-8.287 6.753-15.006 15.084-15.006s15.084 6.719 15.084 15.006z" fill="#C4C4C4"/><path d="M29.997 50.316c-.936-2.013-.068-4.397 1.927-5.315 1.992-.915 4.367-.023 5.303 1.99l19.721 10.995-21.866-5.58c-1.946.75-4.185-.151-5.085-2.09z" fill="#030104"/><path d="M10.021 26.334c6.226-6.22 14.504-9.647 23.308-9.647 8.805 0 17.082 3.426 23.308 9.647 6.226 6.221 9.654 14.493 9.654 23.29 0 5.68-1.432 11.14-4.121 15.971h-6.16l-4.507-2.6 1.99-3.444 5.794 3.343a28.945 28.945 0 003.203-13.27c0-.845-.038-1.681-.109-2.509l-6.908 1.217-.691-3.916 6.99-1.232a29.122 29.122 0 00-7.955-14.274l-4.736 5.64-3.049-2.556 4.772-5.683a29.014 29.014 0 00-15.485-5.756v7.543h-3.98v-7.543a29.018 29.018 0 00-15.485 5.756l4.772 5.683-3.049 2.556-4.736-5.64a29.125 29.125 0 00-7.954 14.274l6.99 1.232-.692 3.916-6.908-1.217c-.07.827-.109 1.664-.109 2.509a28.94 28.94 0 003.203 13.27l5.794-3.343 1.99 3.444-4.506 2.6H4.49C1.798 60.764.366 55.305.366 49.624c0-8.798 3.429-17.07 9.654-23.29z" fill="#030104"/></svg>