<svg width="146" height="66" fill="none" xmlns="http://www.w3.org/2000/svg"><path d="M60.17 18.88c1.61 0 3.057.315 4.34.945 1.283.607 2.287 1.482 3.01 2.625.723 1.143 1.085 2.462 1.085 3.955 0 1.587-.397 2.987-1.19 4.2-.793 1.19-1.867 2.112-3.22 2.765-1.353.653-2.87.98-4.55.98-3.36 0-5.973-1.05-7.84-3.15-1.843-2.1-2.765-5.11-2.765-9.03 0-2.753.502-5.098 1.505-7.035 1.003-1.96 2.403-3.442 4.2-4.445 1.82-1.027 3.92-1.54 6.3-1.54 1.26 0 2.438.14 3.535.42 1.12.257 2.088.642 2.905 1.155l-1.68 3.43c-1.213-.793-2.765-1.19-4.655-1.19-2.357 0-4.2.723-5.53 2.17s-1.995 3.535-1.995 6.265v.035c.723-.84 1.645-1.47 2.765-1.89 1.12-.443 2.38-.665 3.78-.665zm-.77 11.9c1.423 0 2.578-.373 3.465-1.12.887-.77 1.33-1.785 1.33-3.045 0-1.283-.443-2.298-1.33-3.045-.887-.747-2.077-1.12-3.57-1.12-1.47 0-2.672.397-3.605 1.19-.91.793-1.365 1.797-1.365 3.01 0 1.19.443 2.182 1.33 2.975.91.77 2.158 1.155 3.745 1.155zm22.013-11.165c2.264.28 3.99 1.05 5.18 2.31 1.19 1.26 1.785 2.835 1.785 4.725 0 1.423-.361 2.718-1.085 3.885-.723 1.167-1.82 2.1-3.29 2.8-1.446.677-3.22 1.015-5.32 1.015-1.75 0-3.441-.245-5.075-.735-1.61-.513-2.986-1.213-4.13-2.1l1.96-3.535c.887.747 1.96 1.342 3.22 1.785 1.284.42 2.602.63 3.955.63 1.61 0 2.87-.327 3.78-.98.934-.677 1.4-1.587 1.4-2.73s-.443-2.03-1.33-2.66c-.863-.653-2.193-.98-3.99-.98h-2.24V19.93l5.565-6.615h-11.13V9.5h16.695v3.045l-5.95 7.07zM108.93 30.15V34h-18.06v-3.045l9.73-9.24c1.096-1.05 1.831-1.96 2.205-2.73.396-.793.595-1.575.595-2.345 0-1.143-.385-2.018-1.155-2.625-.77-.607-1.902-.91-3.395-.91-2.497 0-4.41.852-5.74 2.555l-3.185-2.45c.956-1.283 2.24-2.275 3.85-2.975 1.633-.723 3.453-1.085 5.46-1.085 2.66 0 4.783.63 6.37 1.89 1.586 1.26 2.38 2.975 2.38 5.145 0 1.33-.28 2.578-.84 3.745-.56 1.167-1.634 2.497-3.22 3.99l-6.545 6.23h11.55zM123.12 29.72h-1.94V34h-2.5V23.32h2.5v4.32h2l3.16-4.32h2.68l-3.88 5.14 4.14 5.54h-2.94l-3.22-4.28zM141.543 34v-7.08l-3.6 5.96h-1.08l-3.54-5.98V34h-2.28V23.32h2.62l3.8 6.68 3.98-6.68h2.34l.02 10.68h-2.26zM51.784 49.712c.448.104.792.284 1.032.54.248.256.372.568.372.936 0 .368-.128.696-.384.984-.248.288-.588.512-1.02.672a4.277 4.277 0 01-1.428.228c-.456 0-.904-.064-1.344-.192a3.56 3.56 0 01-1.152-.588l.288-.636c.288.216.624.384 1.008.504s.772.18 1.164.18c.584 0 1.06-.108 1.428-.324.376-.224.564-.524.564-.9 0-.336-.152-.596-.456-.78-.304-.192-.72-.288-1.248-.288h-1.08v-.624h1.032c.472 0 .852-.088 1.14-.264.288-.184.432-.428.432-.732 0-.336-.164-.6-.492-.792-.32-.192-.74-.288-1.26-.288-.68 0-1.352.172-2.016.516l-.24-.66a5 5 0 012.34-.588c.48 0 .912.072 1.296.216.392.136.696.332.912.588.224.256.336.552.336.888 0 .32-.112.604-.336.852-.216.248-.512.432-.888.552zm5.51-3.072c.824 0 1.456.208 1.896.624.44.408.66 1.016.66 1.824V53h-.816v-.984a1.947 1.947 0 01-.852.768c-.368.184-.808.276-1.32.276-.704 0-1.264-.168-1.68-.504-.416-.336-.624-.78-.624-1.332 0-.536.192-.968.576-1.296.392-.328 1.012-.492 1.86-.492h2.004v-.384c0-.544-.152-.956-.456-1.236-.304-.288-.748-.432-1.332-.432-.4 0-.784.068-1.152.204a2.822 2.822 0 00-.948.54l-.384-.636c.32-.272.704-.48 1.152-.624.448-.152.92-.228 1.416-.228zm-.3 5.748c.48 0 .892-.108 1.236-.324.344-.224.6-.544.768-.96v-1.032h-1.98c-1.08 0-1.62.376-1.62 1.128 0 .368.14.66.42.876.28.208.672.312 1.176.312zm10.788-5.7V53h-.852v-5.556h-3.96V53h-.852v-6.312h5.664zm4.594-.048c.824 0 1.456.208 1.896.624.44.408.66 1.016.66 1.824V53h-.816v-.984a1.947 1.947 0 01-.852.768c-.368.184-.808.276-1.32.276-.704 0-1.264-.168-1.68-.504-.416-.336-.624-.78-.624-1.332 0-.536.192-.968.576-1.296.392-.328 1.012-.492 1.86-.492h2.004v-.384c0-.544-.152-.956-.456-1.236-.304-.288-.748-.432-1.332-.432-.4 0-.784.068-1.152.204a2.822 2.822 0 00-.948.54l-.384-.636c.32-.272.704-.48 1.152-.624.448-.152.92-.228 1.416-.228zm-.3 5.748c.48 0 .892-.108 1.236-.324.344-.224.6-.544.768-.96v-1.032H72.1c-1.08 0-1.62.376-1.62 1.128 0 .368.14.66.42.876.28.208.672.312 1.176.312zm7.764.672a3.436 3.436 0 01-1.68-.408 2.976 2.976 0 01-1.152-1.14 3.333 3.333 0 01-.42-1.668c0-.616.14-1.168.42-1.656.28-.488.664-.868 1.152-1.14a3.436 3.436 0 011.68-.408c.544 0 1.028.108 1.452.324.432.208.772.516 1.02.924l-.636.432a1.945 1.945 0 00-.792-.696c-.32-.16-.668-.24-1.044-.24-.456 0-.868.104-1.236.312-.36.2-.644.488-.852.864-.2.376-.3.804-.3 1.284 0 .488.1.92.3 1.296.208.368.492.656.852.864.368.2.78.3 1.236.3.376 0 .724-.076 1.044-.228.32-.152.584-.384.792-.696l.636.432c-.248.408-.588.72-1.02.936a3.304 3.304 0 01-1.452.312zM91.05 53l-2.003-2.64L87.03 53h-.96l2.496-3.24-2.376-3.072h.96l1.896 2.472 1.896-2.472h.936l-2.376 3.072 2.52 3.24h-.972zm4.75.06a3.319 3.319 0 01-1.644-.408 3.063 3.063 0 01-1.152-1.152 3.267 3.267 0 01-.42-1.656c0-.616.14-1.168.42-1.656.28-.488.664-.868 1.152-1.14a3.319 3.319 0 011.644-.408c.608 0 1.156.136 1.644.408.488.272.868.652 1.14 1.14.28.488.42 1.04.42 1.656 0 .616-.14 1.168-.42 1.656a2.976 2.976 0 01-1.14 1.152 3.319 3.319 0 01-1.644.408zm0-.756c.448 0 .848-.1 1.2-.3.36-.208.64-.5.84-.876.2-.376.3-.804.3-1.284s-.1-.908-.3-1.284c-.2-.376-.48-.664-.84-.864a2.314 2.314 0 00-1.2-.312c-.448 0-.852.104-1.212.312-.352.2-.632.488-.84.864-.2.376-.3.804-.3 1.284s.1.908.3 1.284c.208.376.488.668.84.876.36.2.764.3 1.212.3zm11.146-.048v2.268h-.804V53h-5.652v1.524h-.804v-2.268h.36c.424-.024.712-.336.864-.936.152-.6.256-1.44.312-2.52l.084-2.112h4.656v5.568h.984zm-4.944-3.408c-.04.896-.116 1.636-.228 2.22-.112.576-.312.972-.6 1.188h3.936v-4.812h-3.036l-.072 1.404zm8.777-2.208c.824 0 1.456.208 1.896.624.44.408.66 1.016.66 1.824V53h-.816v-.984a1.947 1.947 0 01-.852.768c-.368.184-.808.276-1.32.276-.704 0-1.264-.168-1.68-.504-.416-.336-.624-.78-.624-1.332 0-.536.192-.968.576-1.296.392-.328 1.012-.492 1.86-.492h2.004v-.384c0-.544-.152-.956-.456-1.236-.304-.288-.748-.432-1.332-.432-.4 0-.784.068-1.152.204a2.822 2.822 0 00-.948.54l-.384-.636c.32-.272.704-.48 1.152-.624.448-.152.92-.228 1.416-.228zm-.3 5.748c.48 0 .892-.108 1.236-.324.344-.224.6-.544.768-.96v-1.032h-1.98c-1.08 0-1.62.376-1.62 1.128 0 .368.14.66.42.876.28.208.672.312 1.176.312z" fill="#000"/><g filter="url(#filter0_d)" stroke="#000"><path fill-rule="evenodd" clip-rule="evenodd" d="M21.311 23.508c.694.931 1.932 1.614 3.984 1.339 3.602-.483 6.39.599 8.063 2.67 1.632 2.02 2.006 4.747 1.304 7.193-.71 2.472-2.536 4.737-5.404 5.873-2.864 1.134-6.59 1.077-11.042-.711-3.867-1.554-6.09-1.302-7.287-.602-1.167.683-1.851 2.091-1.923 4.083-.071 1.973.489 4.22 1.452 6.037.997 1.88 2.218 2.935 3.238 3.14l-.591 2.94c-2.34-.47-4.147-2.504-5.298-4.675-1.184-2.235-1.891-5-1.799-7.55.091-2.532 1-5.157 3.406-6.564 2.376-1.39 5.705-1.286 9.92.407 3.947 1.586 6.855 1.484 8.82.706 1.96-.777 3.159-2.29 3.624-3.912.474-1.648.176-3.329-.754-4.48-.888-1.1-2.551-1.954-5.331-1.582-2.987.4-5.36-.604-6.788-2.52-1.376-1.847-1.711-4.326-1.17-6.645.545-2.343 2.003-4.639 4.387-6.198 2.394-1.566 5.626-2.328 9.622-1.78l-.407 2.972c-3.394-.465-5.874.208-7.573 1.32-1.711 1.118-2.73 2.745-3.108 4.367-.383 1.645-.09 3.173.655 4.172z" fill="#000" stroke-width="3"/><path fill-rule="evenodd" clip-rule="evenodd" d="M31.513 12.361c-.46-.063-.906-.107-1.34-.133l.024-.399c.444.026.9.071 1.37.136l-.054.396zm-4.026-.053c-.948.121-1.81.34-2.591.637l-.142-.374c.81-.308 1.705-.534 2.682-.66l.051.397zm-4.922 1.914a8.65 8.65 0 00-1.85 1.897l-.326-.232a9.05 9.05 0 011.936-1.984l.24.32zm-3.027 4.27a7.636 7.636 0 00-.341 2.618l-.4.02a8.037 8.037 0 01.36-2.756l.381.118zm.324 5.147a4.67 4.67 0 001.773 1.872l-.202.345a5.069 5.069 0 01-1.925-2.03l.354-.187zm5.605 2.496c.548-.073 1.07-.106 1.564-.102l-.003.4a10.73 10.73 0 00-1.508.099c-.492.066-.96.088-1.401.07l.016-.4c.417.017.861-.004 1.332-.067zm4.622.498a5.848 5.848 0 012.446 1.946l-.325.234A5.448 5.448 0 0029.93 27l.159-.367zM33.65 31.5a7.27 7.27 0 01-.317 3.107l-.38-.124a6.87 6.87 0 00.3-2.935l.397-.048zm-18.957 6.026c-1.052-.15-1.962-.135-2.745.012l-.074-.393c.834-.156 1.789-.17 2.875-.016l-.056.397zm17.08-.215a7.818 7.818 0 01-2.505 1.852l-.17-.362a7.415 7.415 0 002.377-1.757l.298.267zM18.7 38.665a22.845 22.845 0 00-1.316-.483l.126-.38c.43.143.877.307 1.339.492.488.196.964.37 1.428.52l-.124.38c-.472-.153-.957-.33-1.453-.529zm-9.162.018c-.663.594-1.132 1.371-1.431 2.267l-.38-.127c.317-.949.82-1.79 1.544-2.438l.267.298zm16.73 1.296c-.95.101-1.985.084-3.108-.075l.056-.396a12.26 12.26 0 003.01.073l.041.398zM7.7 43.657c-.003.898.104 1.83.305 2.751l-.39.085a13.211 13.211 0 01-.315-2.837l.4.001zm1.154 5.392c.381.882.843 1.699 1.366 2.4l-.32.24a12.416 12.416 0 01-1.413-2.482l.367-.158zm3.345 4.265a3.98 3.98 0 001.24.49l-.078.392a4.382 4.382 0 01-1.365-.537l.203-.345z" fill="#fff" stroke-width=".4" stroke-dasharray="3 3"/><path d="M17 54.5a3 3 0 11-6 0 3 3 0 016 0z" fill="#C4C4C4"/><path d="M15 54.5a1 1 0 11-2 0 1 1 0 012 0z" fill="#fff"/><path d="M36 11.5a3 3 0 11-6 0 3 3 0 016 0z" fill="#C4C4C4"/><path d="M34 11.5a1 1 0 11-2 0 1 1 0 012 0z" fill="#fff"/></g><defs><filter id="filter0_d" x=".5" y="8" width="40" height="58" filterUnits="userSpaceOnUse" color-interpolation-filters="sRGB"><feFlood flood-opacity="0" result="BackgroundImageFix"/><feColorMatrix in="SourceAlpha" values="0 0 0 0 0 0 0 0 0 0 0 0 0 0 0 0 0 0 127 0"/><feOffset dy="4"/><feGaussianBlur stdDeviation="2"/><feColorMatrix values="0 0 0 0 0 0 0 0 0 0 0 0 0 0 0 0 0 0 0.25 0"/><feBlend in2="BackgroundImageFix" result="effect1_dropShadow"/><feBlend in="SourceGraphic" in2="effect1_dropShadow" result="shape"/></filter></defs></svg>