<svg width="202" height="84" fill="none" xmlns="http://www.w3.org/2000/svg"><path d="M78.569 26.89c-3.9 0-7.25 1.2-9.35 3.65v-.05c0-7.95 4.15-12.05 10.75-12.05 2.45 0 4.75.45 6.65 1.7l2.4-4.9c-2.35-1.5-5.7-2.25-9.2-2.25-10.15 0-17.15 6.6-17.15 18.6 0 11.25 5.6 17.4 15.15 17.4 7.15 0 12.8-4.4 12.8-11.35 0-6.55-5.15-10.75-12.05-10.75zm-1.1 17c-4.65 0-7.25-2.6-7.25-5.9 0-3.45 2.9-6 7.1-6 4.25 0 7 2.3 7 5.95 0 3.65-2.8 5.95-6.85 5.95zm31.448-15.95l8.5-10.1v-4.35h-23.85v5.45h15.9l-7.95 9.45v4.45h3.2c5.3 0 7.6 2.05 7.6 5.2 0 3.25-2.75 5.3-7.4 5.3-3.95 0-7.75-1.35-10.25-3.45l-2.8 5.05c3.25 2.55 8.2 4.05 13.15 4.05 9.4 0 13.85-5.1 13.85-11 0-5.25-3.35-9.2-9.95-10.05zm22.807 15.05l9.35-8.9c4.85-4.55 5.8-7.65 5.8-11.05 0-6.2-4.9-10.05-12.5-10.05-5.75 0-10.6 2.15-13.3 5.8l4.55 3.5c1.95-2.5 4.8-3.65 8.2-3.65 4.3 0 6.5 1.85 6.5 5.05 0 1.95-.6 4-4 7.25l-13.9 13.2v4.35h25.8v-5.5h-16.5zM169.412 40.986h2.94l-4.14-5.54 3.88-5.14h-2.68l-3.16 4.32h-2v-4.32h-2.5v10.68h2.5v-4.28h1.94l3.22 4.28zm17.463 0l-.02-10.68h-2.34l-3.98 6.68-3.8-6.68h-2.62v10.68h2.28v-7.1l3.54 5.98h1.08l3.6-5.96v7.08h2.26zM64.753 67.96c.732-.24 1.224-.744 1.224-1.404 0-1.032-1.104-1.692-2.544-1.692-.768 0-1.56.18-2.34.588l.24.66a4.414 4.414 0 012.016-.516c1.008 0 1.752.384 1.752 1.08 0 .624-.648.996-1.572.996h-1.032v.624h1.08c1.056 0 1.704.396 1.704 1.068 0 .768-.852 1.224-1.992 1.224-.768 0-1.584-.24-2.172-.684l-.288.636c.672.516 1.596.78 2.496.78 1.572 0 2.832-.744 2.832-1.884 0-.744-.516-1.272-1.404-1.476zm5.51-3.072c-.996 0-1.932.312-2.568.852l.384.636c.516-.456 1.284-.744 2.1-.744 1.176 0 1.788.588 1.788 1.668v.384h-2.004c-1.812 0-2.436.816-2.436 1.788 0 1.092.876 1.836 2.304 1.836 1.044 0 1.788-.396 2.172-1.044v.984h.816v-3.912c0-1.632-.924-2.448-2.556-2.448zm-.3 5.748c-1.008 0-1.596-.456-1.596-1.188 0-.648.396-1.128 1.62-1.128h1.98v1.032c-.336.828-1.044 1.284-2.004 1.284zm5.124-5.7v6.312h.852v-5.556h3.96v5.556h.852v-6.312h-5.664zm10.258-.048c-.996 0-1.932.312-2.568.852l.384.636c.516-.456 1.284-.744 2.1-.744 1.176 0 1.788.588 1.788 1.668v.384h-2.004c-1.812 0-2.436.816-2.436 1.788 0 1.092.876 1.836 2.304 1.836 1.044 0 1.788-.396 2.172-1.044v.984h.816v-3.912c0-1.632-.924-2.448-2.556-2.448zm-.3 5.748c-1.008 0-1.596-.456-1.596-1.188 0-.648.396-1.128 1.62-1.128h1.98v1.032c-.336.828-1.044 1.284-2.004 1.284zm7.764.672c1.068 0 1.968-.432 2.472-1.248l-.636-.432c-.432.636-1.104.924-1.836.924-1.38 0-2.388-.972-2.388-2.46 0-1.476 1.008-2.46 2.388-2.46.732 0 1.404.3 1.836.936l.636-.432c-.504-.828-1.404-1.248-2.472-1.248-1.884 0-3.252 1.32-3.252 3.204 0 1.884 1.368 3.216 3.252 3.216zm12.183-.06l-2.52-3.24 2.376-3.072h-.936l-1.896 2.472-1.896-2.472h-.96l2.376 3.072-2.496 3.24h.96l2.016-2.64 2.004 2.64h.972zm3.777.06c1.848 0 3.204-1.344 3.204-3.216s-1.356-3.204-3.204-3.204-3.216 1.332-3.216 3.204 1.368 3.216 3.216 3.216zm0-.756c-1.344 0-2.352-.984-2.352-2.46s1.008-2.46 2.352-2.46c1.344 0 2.34.984 2.34 2.46s-.996 2.46-2.34 2.46zm10.162-.048v-5.568h-4.656l-.084 2.112c-.084 1.704-.24 3.396-1.176 3.456h-.36v2.268h.804v-1.524h5.652v1.524h.804v-2.268h-.984zm-3.96-3.408l.072-1.404h3.036v4.812h-3.936c.636-.48.768-1.968.828-3.408zm8.777-2.208c-.996 0-1.932.312-2.568.852l.384.636c.516-.456 1.284-.744 2.1-.744 1.176 0 1.788.588 1.788 1.668v.384h-2.004c-1.812 0-2.436.816-2.436 1.788 0 1.092.876 1.836 2.304 1.836 1.044 0 1.788-.396 2.172-1.044v.984h.816v-3.912c0-1.632-.924-2.448-2.556-2.448zm-.3 5.748c-1.008 0-1.596-.456-1.596-1.188 0-.648.396-1.128 1.62-1.128h1.98v1.032c-.336.828-1.044 1.284-2.004 1.284z" fill="#000"/><path fill-rule="evenodd" clip-rule="evenodd" d="M22.937 34.18c.994 1.334 2.768 2.312 5.709 1.918 5.163-.691 9.159.858 11.556 3.827 2.338 2.895 2.875 6.803 1.868 10.309-1.017 3.542-3.633 6.79-7.744 8.416-4.105 1.626-9.446 1.544-15.825-1.019-5.541-2.226-8.728-1.865-10.443-.862-1.673.98-2.653 2.997-2.756 5.851-.102 2.828.7 6.049 2.08 8.652 1.43 2.695 3.18 4.206 4.64 4.5l-.846 4.215c-3.353-.674-5.943-3.59-7.592-6.701-1.697-3.203-2.71-7.166-2.579-10.821.131-3.628 1.435-7.39 4.882-9.407 3.405-1.992 8.176-1.843 14.217.584 5.657 2.272 9.823 2.126 12.64 1.011 2.81-1.113 4.526-3.281 5.194-5.606.678-2.361.252-4.77-1.08-6.42-1.274-1.578-3.658-2.8-7.642-2.267-4.28.573-7.682-.866-9.727-3.612-1.972-2.648-2.453-6.2-1.678-9.524.782-3.357 2.872-6.647 6.287-8.881 3.432-2.245 8.063-3.337 13.79-2.552l-.583 4.26c-4.864-.667-8.418.297-10.853 1.89-2.452 1.604-3.913 3.935-4.454 6.259-.55 2.358-.128 4.548.939 5.98z" fill="#000"/><path fill-rule="evenodd" clip-rule="evenodd" d="M37.558 18.204c-.66-.09-1.3-.153-1.92-.19l.034-.572c.636.038 1.29.102 1.964.195l-.078.567zm-5.77-.075a16.194 16.194 0 00-3.714.913l-.203-.536a16.764 16.764 0 013.844-.946l.073.569zm-7.054 2.743a12.397 12.397 0 00-2.652 2.718l-.468-.332a12.97 12.97 0 012.775-2.844l.345.458zm-4.338 6.12a10.943 10.943 0 00-.49 3.75l-.572.029a11.517 11.517 0 01.514-3.95l.548.17zm.464 7.376c.586 1.106 1.435 2.035 2.541 2.682l-.29.495c-1.205-.705-2.126-1.715-2.758-2.909l.507-.268zm8.033 3.577a15.958 15.958 0 012.241-.147l-.004.573c-.68-.005-1.4.04-2.161.142-.706.095-1.375.126-2.008.1l.023-.572c.598.024 1.234-.006 1.909-.096zm6.623.713c1.49.646 2.659 1.617 3.506 2.79l-.465.335c-.787-1.089-1.874-1.995-3.269-2.599l.228-.526zm5.106 6.975a10.42 10.42 0 01-.455 4.453l-.545-.178a9.848 9.848 0 00.43-4.207l.57-.068zM13.453 54.27c-1.506-.215-2.811-.193-3.933.018l-.106-.563c1.194-.225 2.563-.244 4.12-.023l-.081.568zm24.478-.308a11.2 11.2 0 01-3.59 2.654l-.244-.519a10.628 10.628 0 003.407-2.518l.427.383zm-18.735 1.941a32.674 32.674 0 00-1.886-.693l.18-.544c.618.205 1.257.44 1.92.705.7.282 1.381.53 2.046.745l-.177.545a32.693 32.693 0 01-2.084-.758zm-13.13.025c-.95.852-1.623 1.966-2.051 3.25l-.544-.182c.454-1.36 1.176-2.565 2.213-3.495l.382.427zm23.976 1.858c-1.36.145-2.845.12-4.454-.107l.08-.568c1.566.221 3.004.244 4.313.105l.06.57zM3.43 63.056A18.36 18.36 0 003.868 67l-.56.122a18.933 18.933 0 01-.451-4.066l.573.001zm1.654 7.727c.546 1.264 1.209 2.435 1.958 3.44l-.46.343c-.779-1.045-1.463-2.256-2.024-3.556l.526-.227zm4.794 6.113a5.71 5.71 0 001.778.702l-.113.562a6.28 6.28 0 01-1.956-.77l.291-.494z" fill="#fff"/><path d="M17.475 78.595a5.016 5.016 0 11-10.032 0 5.016 5.016 0 0110.032 0z" fill="#C4C4C4"/><path d="M14.609 78.595a2.15 2.15 0 11-4.3 0 2.15 2.15 0 014.3 0z" fill="#fff"/><path d="M44.705 16.97a5.016 5.016 0 11-10.032 0 5.016 5.016 0 0110.032 0z" fill="#C4C4C4"/><path d="M41.838 16.97a2.15 2.15 0 11-4.3 0 2.15 2.15 0 014.3 0z" fill="#fff"/></svg>